<?xml version="1.0" standalone="no"?>
<!DOCTYPE svg PUBLIC "-//W3C//DTD SVG 20010904//EN"
 "http://www.w3.org/TR/2001/REC-SVG-20010904/DTD/svg10.dtd">
<svg version="1.0" xmlns="http://www.w3.org/2000/svg"
 width="300.000000pt" height="300.000000pt" viewBox="0 0 300.000000 300.000000"
 preserveAspectRatio="xMidYMid meet">
<metadata>
Created by potrace 1.14, written by Peter Selinger 2001-2017
</metadata>
<g transform="translate(0.000000,300.000000) scale(0.100000,-0.100000)"
fill="#000000" stroke="none">
<path d="M558 2968 c-3 -20 1 -42 10 -56 11 -16 13 -36 8 -73 -6 -41 -3 -56
14 -85 12 -19 24 -34 26 -34 10 0 74 55 74 63 0 5 8 21 19 35 10 15 21 52 25
82 4 30 10 65 13 78 5 22 4 22 -90 22 l-95 0 -4 -32z"/>
<path d="M1210 2942 c0 -56 2 -60 40 -91 23 -18 40 -41 40 -52 0 -16 4 -19 23
-13 56 17 74 41 80 104 4 33 10 72 13 85 l6 25 -101 0 -101 0 0 -58z"/>
<path d="M2036 2974 c-14 -15 -26 -31 -26 -36 0 -5 -9 -18 -20 -30 -27 -29
-86 -148 -95 -189 -3 -19 -14 -48 -22 -66 -15 -29 -15 -33 0 -57 9 -14 17 -29
17 -34 0 -12 97 -181 113 -196 7 -7 22 -18 34 -24 12 -7 38 -47 59 -89 93
-193 90 -188 126 -191 32 -3 35 0 60 55 15 32 30 79 33 105 3 26 12 53 19 60
208 197 276 270 276 297 0 7 11 26 25 43 31 37 31 62 0 117 -14 23 -25 49 -25
57 0 7 -13 41 -29 76 -15 35 -34 76 -40 92 -9 21 -17 27 -31 23 -11 -3 -20 -1
-20 4 0 5 -93 9 -214 9 l-213 0 -27 -26z"/>
<path d="M2883 2965 c7 -45 15 -54 28 -35 15 24 6 64 -15 68 -17 4 -18 0 -13
-33z"/>
<path d="M105 2931 c-3 -11 0 -32 8 -47 l14 -28 12 23 c7 12 11 32 9 44 -4 29
-34 34 -43 8z"/>
<path d="M905 2882 c-54 -33 -200 -174 -220 -212 -10 -20 -45 -212 -45 -250 0
-5 -6 -15 -13 -22 -19 -19 -46 -155 -57 -288 -15 -175 -28 -231 -58 -262 -14
-16 -31 -28 -36 -28 -6 -1 -27 -14 -45 -30 -25 -21 -37 -26 -42 -18 -10 16
-45 -15 -65 -59 -9 -18 -37 -54 -64 -81 -61 -62 -80 -99 -80 -157 0 -49 29
-118 56 -133 15 -8 15 -20 -1 -143 -30 -232 -30 -244 -6 -278 28 -39 20 -51
-29 -51 -21 0 -41 -4 -45 -9 -10 -17 -65 -216 -65 -237 0 -12 -13 -72 -29
-135 -17 -63 -32 -125 -34 -139 -5 -26 0 311 8 490 3 77 1 96 -6 73 -5 -18
-14 -35 -19 -38 -6 -4 -10 -166 -10 -440 l0 -433 713 -1 713 -1 -1 27 c0 23 5
29 26 31 34 4 57 -22 39 -43 -11 -13 71 -15 732 -15 l745 0 -5 32 c-4 28 -2
30 17 25 25 -6 26 -4 5 18 -22 21 -22 90 0 113 14 16 16 58 16 358 0 262 -3
352 -14 390 -8 27 -17 66 -21 87 -6 35 -35 64 -80 80 -5 2 -2 13 8 25 17 19
18 28 7 119 -6 54 -22 144 -35 201 -26 113 -32 122 -121 167 l-51 27 -79 -40
c-109 -55 -152 -72 -168 -66 -7 3 -18 -5 -24 -18 l-11 -23 0 23 c-1 22 -4 23
-83 20 -68 -2 -83 -6 -86 -20 -3 -13 6 -17 42 -20 l45 -3 -45 -59 c-24 -33
-44 -70 -44 -83 0 -19 5 -23 32 -23 l33 0 -40 -38 c-45 -42 -68 -95 -81 -187
-12 -78 1 -684 14 -697 6 -6 8 -17 5 -26 -6 -15 -72 195 -73 231 0 34 -35 17
-65 -32 -5 -10 -20 -33 -33 -52 -21 -31 -23 -43 -20 -139 l3 -105 -48 -3 c-67
-4 -76 10 -77 118 -1 47 -5 105 -10 130 -6 36 -8 24 -7 -60 0 -62 -5 -115 -11
-127 -7 -12 -12 -31 -12 -42 0 -12 -4 -21 -9 -21 -9 0 -24 126 -16 140 3 4 -8
106 -25 225 -20 148 -30 261 -31 358 -1 121 -3 134 -11 87 -4 -30 -6 -158 -2
-284 6 -223 5 -229 -15 -250 -12 -11 -40 -44 -64 -73 -23 -28 -61 -66 -82 -83
-22 -17 -53 -45 -69 -61 -52 -53 -58 -38 -21 51 14 33 25 66 25 75 0 8 23 66
50 127 28 61 50 114 50 116 0 10 -33 -23 -39 -39 -3 -9 -30 -43 -58 -75 -61
-68 -123 -150 -123 -163 0 -4 -9 -16 -20 -26 -25 -22 -25 -22 -1 123 28 175
42 275 37 279 -2 2 -9 -25 -15 -61 -6 -35 -22 -99 -36 -140 -14 -42 -25 -84
-25 -94 0 -27 -42 -152 -51 -152 -5 0 -9 30 -9 68 0 150 -42 665 -55 678 -18
19 -31 229 -15 268 8 23 8 31 -2 38 -23 14 -45 9 -51 -12 -8 -32 -37 -25 -37
10 0 28 34 64 56 59 5 -1 17 1 26 5 17 8 16 10 -4 39 -15 21 -21 42 -19 69 1
22 -1 58 -5 81 l-7 42 -12 -50 c-7 -27 -16 -58 -20 -67 -5 -14 -2 -18 14 -18
12 0 21 -4 21 -10 0 -5 -15 -10 -32 -10 -54 0 -94 -31 -102 -78 -7 -47 1 -101
20 -122 20 -23 31 -428 13 -461 -11 -19 -13 -81 -10 -316 2 -163 0 -293 -5
-293 -10 0 -75 233 -74 268 0 12 -3 22 -6 22 -11 0 -49 -24 -73 -46 -14 -13
-28 -24 -31 -24 -9 1 -50 98 -50 119 0 11 5 23 10 26 6 4 10 69 10 162 0 143
2 157 22 186 12 18 28 35 34 40 32 19 44 70 44 184 0 106 1 113 20 113 19 0
20 7 20 105 l0 105 -30 0 c-23 0 -30 4 -30 20 0 16 7 20 30 20 25 0 30 4 30
25 0 20 -5 25 -24 25 -13 0 -27 -6 -29 -12 -3 -7 -6 26 -6 73 -1 73 -5 96 -31
152 -34 75 -34 77 -19 77 22 0 137 60 162 85 27 27 32 50 42 175 12 153 36
296 56 336 14 30 22 76 29 165 8 121 8 124 -13 141 -12 10 -28 18 -34 18 -7 0
-13 3 -13 8 0 7 -92 37 -145 47 -20 3 -40 -1 -60 -13z m1495 -1418 c-6 -14
-10 -38 -10 -54 0 -23 3 -27 20 -23 13 3 20 0 20 -8 0 -11 -14 -13 -60 -11
-33 2 -60 6 -60 9 0 5 92 113 97 113 1 0 -2 -12 -7 -26z m-1164 -390 c-3 -9
-6 -22 -6 -30 0 -8 -5 -14 -10 -14 -8 0 -9 34 -1 58 1 1 6 2 12 2 6 0 8 -7 5
-16z m-19 -76 c-3 -8 -6 -5 -6 6 -1 11 2 17 5 13 3 -3 4 -12 1 -19z m533 -607
c-5 -11 -10 -40 -10 -65 0 -55 -19 -62 -22 -8 l-1 37 -4 -37 -4 -38 -60 0
c-52 0 -59 2 -59 19 0 30 19 72 43 97 12 12 35 39 50 61 15 21 38 51 50 68
l22 30 3 -73 c2 -39 -2 -80 -8 -91z m1235 139 c3 -5 1 -10 -4 -10 -6 0 -11 5
-11 10 0 6 2 10 4 10 3 0 8 -4 11 -10z m-2486 -314 c25 -30 -22 -66 -61 -45
-18 10 -24 39 -11 52 12 12 60 7 72 -7z m501 -86 c0 -5 -9 -10 -20 -10 -11 0
-20 5 -20 10 0 6 9 10 20 10 11 0 20 -4 20 -10z m-375 -29 c7 -12 -12 -24 -25
-16 -11 7 -4 25 10 25 5 0 11 -4 15 -9z"/>
<path d="M2738 2642 c-15 -15 -34 -32 -42 -39 -28 -23 -29 -84 -2 -175 14 -47
30 -112 35 -144 6 -33 22 -100 36 -149 14 -50 25 -100 25 -112 0 -12 4 -33 10
-47 9 -25 10 -26 30 -9 16 14 20 30 20 75 0 39 5 61 15 70 112 93 126 198 62
466 l-22 94 -30 -7 c-76 -16 -95 -17 -95 -6 0 17 -13 12 -42 -17z"/>
<path d="M410 2600 c0 -5 5 -10 10 -10 6 0 10 5 10 10 0 6 -4 10 -10 10 -5 0
-10 -4 -10 -10z"/>
<path d="M1235 2501 c-3 -5 -1 -12 5 -16 5 -3 10 1 10 9 0 18 -6 21 -15 7z"/>
<path d="M442 2470 c0 -14 2 -19 5 -12 2 6 2 18 0 25 -3 6 -5 1 -5 -13z"/>
<path d="M1180 2475 c0 -8 5 -15 10 -15 6 0 10 7 10 15 0 8 -4 15 -10 15 -5 0
-10 -7 -10 -15z"/>
<path d="M390 2420 c0 -18 4 -29 10 -25 6 3 10 15 10 25 0 10 -4 22 -10 25 -6
4 -10 -7 -10 -25z"/>
<path d="M1177 2433 c-12 -11 -7 -59 7 -79 14 -18 15 -18 24 7 18 46 -5 99
-31 72z"/>
<path d="M482 2381 c-19 -12 -12 -86 8 -86 11 0 16 13 18 48 3 47 -2 54 -26
38z"/>
<path d="M308 2238 l-36 -33 -6 -115 c-6 -116 -4 -125 25 -147 13 -10 23 -9
57 7 23 11 48 20 57 20 8 0 15 4 15 9 0 5 9 12 19 16 20 6 42 78 40 133 0 24
-1 25 -9 7 -6 -16 -9 -12 -11 20 -4 38 -6 40 -36 39 -32 -2 -33 -1 -33 37 0
34 -3 39 -23 39 -12 0 -39 -15 -59 -32z"/>
<path d="M1210 2244 c0 -8 5 -12 10 -9 6 4 8 11 5 16 -9 14 -15 11 -15 -7z"/>
<path d="M1134 2156 c-4 -10 -2 -22 4 -28 8 -8 13 -7 18 6 4 10 2 22 -4 28 -8
8 -13 7 -18 -6z"/>
<path d="M1220 2142 c-38 -25 -40 -31 -40 -123 0 -71 3 -89 18 -102 36 -33 48
-22 64 66 17 85 14 177 -6 176 -6 0 -22 -8 -36 -17z"/>
<path d="M2072 2068 c2 -40 7 -54 20 -56 11 -2 18 6 22 26 8 36 -8 82 -29 82
-13 0 -15 -10 -13 -52z"/>
<path d="M2370 2082 c-42 -51 -42 -47 -27 -103 10 -41 20 -58 40 -69 24 -13
29 -13 37 0 18 27 12 122 -10 158 -11 17 -21 32 -23 32 -1 0 -9 -8 -17 -18z"/>
<path d="M1567 1983 c-12 -12 -7 -50 8 -63 13 -11 15 -7 15 29 0 38 -8 50 -23
34z"/>
<path d="M30 1931 c0 -12 6 -21 16 -21 9 0 14 7 12 17 -5 25 -28 28 -28 4z"/>
<path d="M1 1914 c0 -11 3 -14 6 -6 3 7 2 16 -1 19 -3 4 -6 -2 -5 -13z"/>
<path d="M988 1884 c-26 -13 -28 -19 -28 -75 0 -45 5 -67 19 -85 l19 -24 21
26 c18 23 21 38 18 98 -2 38 -8 71 -13 73 -5 1 -21 -5 -36 -13z"/>
<path d="M3 1845 c0 -27 2 -38 4 -22 2 15 2 37 0 50 -2 12 -4 0 -4 -28z"/>
<path d="M2565 1850 c-8 -13 4 -32 16 -25 12 8 12 35 0 35 -6 0 -13 -4 -16
-10z"/>
<path d="M2660 1705 c7 -8 17 -15 22 -15 5 0 3 7 -6 15 -8 8 -18 15 -22 15 -3
0 -1 -7 6 -15z"/>
<path d="M1400 1479 l0 -151 96 4 c86 3 98 5 115 27 25 31 24 72 -2 105 -16
20 -19 30 -10 39 20 20 13 76 -14 102 -22 22 -32 25 -105 25 l-80 0 0 -151z
m154 79 c18 -29 -4 -53 -53 -56 -38 -3 -41 -1 -41 22 0 13 -3 32 -6 41 -6 14
0 16 41 13 32 -2 52 -9 59 -20z m0 -114 c37 -37 12 -74 -51 -74 l-43 0 0 45 0
45 39 0 c23 0 46 -7 55 -16z"/>
<path d="M4 1485 c0 -66 1 -92 3 -57 2 34 2 88 0 120 -2 31 -3 3 -3 -63z"/>
<path d="M1737 1533 c-11 -11 -17 -13 -17 -5 0 7 -11 12 -25 12 l-25 0 0 -105
c0 -104 0 -105 24 -105 22 0 24 5 31 73 8 77 17 97 45 97 22 0 33 37 13 44
-22 9 -27 8 -46 -11z"/>
<path d="M1863 1540 c-73 -29 -67 -189 7 -205 44 -10 98 2 110 24 8 15 5 20
-11 24 -12 3 -32 0 -46 -6 -22 -10 -28 -8 -45 13 l-20 25 71 3 c79 3 83 8 55
68 -27 58 -68 75 -121 54z m75 -62 c3 -15 -4 -18 -37 -18 -44 0 -44 0 -35 25
9 22 68 17 72 -7z"/>
<path d="M2061 1522 c-37 -35 -48 -87 -28 -135 20 -46 48 -61 105 -54 40 4 61
18 62 40 0 15 -32 19 -54 7 -27 -14 -66 1 -66 25 0 12 15 15 65 15 62 0 65 1
65 25 0 38 -21 75 -51 91 -41 21 -66 17 -98 -14z m87 -44 c3 -15 -4 -18 -32
-18 -34 0 -47 15 -29 34 13 13 58 1 61 -16z"/>
<path d="M1260 1435 c0 -23 3 -25 50 -25 47 0 50 2 50 25 0 23 -3 25 -50 25
-47 0 -50 -2 -50 -25z"/>
<path d="M1950 1206 c0 -22 3 -27 11 -19 8 8 8 16 0 30 -9 16 -10 14 -11 -11z"/>
</g>
</svg>
